<svg xmlns="http://www.w3.org/2000/svg" xmlns:xlink="http://www.w3.org/1999/xlink">

    <symbol id="arrow-down" viewBox="0 0 10 6">
        <path
            d="M5.01077 5.99987C5.23471 5.99804 5.44916 5.90703 5.60872 5.74612L9.74595 1.5096C9.90811 1.34428 9.99949 1.11977 10 0.885451C10.0005 0.651135 9.91008 0.42621 9.74864 0.260157C9.5872 0.0941027 9.36795 0.000521907 9.13913 2.17641e-06C8.91031 -0.000517555 8.69066 0.0920662 8.52849 0.257385L5 3.87057L1.47151 0.257386C1.39121 0.175528 1.29595 0.110666 1.19118 0.066504C1.08641 0.0223427 0.974171 -0.000254555 0.86087 2.94837e-06C0.747568 0.000259974 0.635423 0.0233675 0.530842 0.0680047C0.426262 0.112642 0.331288 0.177935 0.25135 0.260156C0.171411 0.342378 0.108078 0.439918 0.0649512 0.547206C0.0218248 0.654494 -0.0002492 0.76943 2.12213e-06 0.885452C0.000253444 1.00147 0.0228229 1.11631 0.0664137 1.2234C0.110004 1.33049 0.17376 1.42774 0.254054 1.5096L4.39127 5.74612C4.47288 5.82845 4.56971 5.8933 4.67608 5.93687C4.78244 5.98043 4.89623 6.00185 5.01077 5.99987Z"
            fill="#80A2B6" />
    </symbol>
    <symbol id="icon-loader" viewBox="0 0 64 64">
        <path stroke="currentColor" stroke-width="4" fill="transparent" stroke-linecap="round" d="M2 32C2 48.5685 15.4315 62 32 62C48.5685 62 62 48.5685 62 32C62 15.4315 48.5685 2 32 2"/>
    </symbol>
        <symbol id="chevron-down" viewBox="0 0 12 7">
        <path stroke="currentColor" fill="none" stroke-width="1.5" stroke-linecap="round" d="M11 1L9.25269 2.76297C7.85925 4.1689 7.16253 4.87187 6.31333 4.98011C6.10527 5.00663 5.89473 5.00663 5.68667 4.98011C4.83748 4.87187 4.14075 4.1689 2.74731 2.76297L1 1"/>
    </symbol>
        <symbol id="close" viewBox="0 0 16 16" fill="none">
        <path stroke="currentColor" stroke-width="1.5" stroke-linecap="round" d="M3.33301 3.33334L12.6663 12.6667M3.33303 12.6667L7.99969 8L12.6664 3.33333"/>
    </symbol>
    <symbol id="icon-up" viewBox="0 0 14 15">
        <path fill="currentColor" d="M6.24967 12.1667C6.24967 12.5809 6.58546 12.9167 6.99967 12.9167C7.41389 12.9167 7.74967 12.5809 7.74967 12.1667H6.24967ZM7.74967 2.83337C7.74967 2.41916 7.41389 2.08337 6.99967 2.08337C6.58546 2.08337 6.24967 2.41916 6.24967 2.83337L7.74967 2.83337ZM3.55032 4.63875C3.25873 4.93294 3.26085 5.40781 3.55505 5.6994C3.84925 5.99098 4.32411 5.98886 4.6157 5.69467L3.55032 4.63875ZM5.10227 4.13831L4.56958 3.61035L5.10227 4.13831ZM8.89708 4.13831L8.36439 4.66627L8.89708 4.13831ZM9.38365 5.69467C9.67523 5.98886 10.1501 5.99098 10.4443 5.6994C10.7385 5.40781 10.7406 4.93295 10.449 4.63875L9.38365 5.69467ZM6.8169 2.84498L6.72207 2.101L6.72207 2.101L6.8169 2.84498ZM7.18245 2.84498L7.27728 2.101L7.27728 2.101L7.18245 2.84498ZM7.74967 12.1667L7.74967 2.83337L6.24967 2.83337L6.24967 12.1667H7.74967ZM4.6157 5.69467L5.63496 4.66627L4.56958 3.61035L3.55032 4.63875L4.6157 5.69467ZM8.36439 4.66627L9.38365 5.69467L10.449 4.63875L9.42977 3.61035L8.36439 4.66627ZM5.63496 4.66627C6.0538 4.24368 6.32411 3.97255 6.54826 3.79254C6.76058 3.62203 6.85756 3.59586 6.91173 3.58896L6.72207 2.101C6.28087 2.15723 5.92696 2.36766 5.60902 2.623C5.3029 2.86884 4.96359 3.21281 4.56958 3.61035L5.63496 4.66627ZM9.42977 3.61035C9.03576 3.21281 8.69645 2.86884 8.39033 2.623C8.07239 2.36766 7.71848 2.15723 7.27728 2.101L7.08762 3.58896C7.14179 3.59586 7.23877 3.62203 7.45109 3.79254C7.67524 3.97255 7.94555 4.24368 8.36439 4.66627L9.42977 3.61035ZM6.91173 3.58896C6.97013 3.58151 7.02922 3.58151 7.08762 3.58896L7.27728 2.101C7.09295 2.0775 6.9064 2.0775 6.72207 2.101L6.91173 3.58896Z"/>
    </symbol>

    <symbol id="cart" viewBox="0 0 20 20">
        <path
            d="M6,16 C4.9,16 4,16.9 4,18 C4,19.1 4.9,20 6,20 C7.1,20 8,19.1 8,18 C8,16.9 7.1,16 6,16 L6,16 Z M0,0 L0,2 L2,2 L5.6,9.6 L4.2,12 C4.1,12.3 4,12.7 4,13 C4,14.1 4.9,15 6,15 L18,15 L18,13 L6.4,13 C6.3,13 6.2,12.9 6.2,12.8 L6.2,12.7 L7.1,11 L14.5,11 C15.3,11 15.9,10.6 16.2,10 L19.8,3.5 C20,3.3 20,3.2 20,3 C20,2.4 19.6,2 19,2 L4.2,2 L3.3,0 L0,0 L0,0 Z M16,16 C14.9,16 14,16.9 14,18 C14,19.1 14.9,20 16,20 C17.1,20 18,19.1 18,18 C18,16.9 17.1,16 16,16 L16,16 Z"
            id="Shape"
            fill="#000000"
             />
    </symbol>

            <symbol id="arrow-down" viewBox="0 0 10 6">
        <path
            d="M5.01077 5.99987C5.23471 5.99804 5.44916 5.90703 5.60872 5.74612L9.74595 1.5096C9.90811 1.34428 9.99949 1.11977 10 0.885451C10.0005 0.651135 9.91008 0.42621 9.74864 0.260157C9.5872 0.0941027 9.36795 0.000521907 9.13913 2.17641e-06C8.91031 -0.000517555 8.69066 0.0920662 8.52849 0.257385L5 3.87057L1.47151 0.257386C1.39121 0.175528 1.29595 0.110666 1.19118 0.066504C1.08641 0.0223427 0.974171 -0.000254555 0.86087 2.94837e-06C0.747568 0.000259974 0.635423 0.0233675 0.530842 0.0680047C0.426262 0.112642 0.331288 0.177935 0.25135 0.260156C0.171411 0.342378 0.108078 0.439918 0.0649512 0.547206C0.0218248 0.654494 -0.0002492 0.76943 2.12213e-06 0.885452C0.000253444 1.00147 0.0228229 1.11631 0.0664137 1.2234C0.110004 1.33049 0.17376 1.42774 0.254054 1.5096L4.39127 5.74612C4.47288 5.82845 4.56971 5.8933 4.67608 5.93687C4.78244 5.98043 4.89623 6.00185 5.01077 5.99987Z"
            fill="#80A2B6" />
    </symbol>




</svg>